<svg xmlns="http://www.w3.org/2000/svg" viewBox="0 0 512 512">
  <defs>
    <linearGradient id="rocketGrad" x1="0%" y1="0%" x2="100%" y2="100%">
      <stop offset="0%" style="stop-color:#667eea"/>
      <stop offset="100%" style="stop-color:#764ba2"/>
    </linearGradient>
    <linearGradient id="sharkGrad" x1="0%" y1="0%" x2="100%" y2="100%">
      <stop offset="0%" style="stop-color:#4facfe"/>
      <stop offset="100%" style="stop-color:#00f2fe"/>
    </linearGradient>
    <linearGradient id="flameGrad" x1="0%" y1="0%" x2="0%" y2="100%">
      <stop offset="0%" style="stop-color:#f093fb"/>
      <stop offset="50%" style="stop-color:#f5576c"/>
      <stop offset="100%" style="stop-color:#ff9a44"/>
    </linearGradient>
  </defs>
  
  <!-- Background circle -->
  <circle cx="256" cy="256" r="240" fill="#1a1a2e"/>
  <circle cx="256" cy="256" r="220" fill="#16213e"/>
  
  <!-- Rocket body -->
  <path d="M256 80 L320 200 L320 340 L280 380 L232 380 L192 340 L192 200 Z" 
        fill="url(#rocketGrad)" stroke="#fff" stroke-width="3"/>
  
  <!-- Rocket window -->
  <circle cx="256" cy="180" r="35" fill="#1a1a2e" stroke="#fff" stroke-width="2"/>
  <circle cx="256" cy="180" r="25" fill="url(#sharkGrad)" opacity="0.3"/>
  
  <!-- Shark inside window -->
  <text x="256" y="192" text-anchor="middle" font-size="36">🦈</text>
  
  <!-- Rocket fins -->
  <path d="M192 280 L140 360 L192 340 Z" fill="url(#rocketGrad)" stroke="#fff" stroke-width="2"/>
  <path d="M320 280 L372 360 L320 340 Z" fill="url(#rocketGrad)" stroke="#fff" stroke-width="2"/>
  
  <!-- Rocket flames -->
  <ellipse cx="256" cy="420" rx="50" ry="70" fill="url(#flameGrad)" opacity="0.9"/>
  <ellipse cx="256" cy="400" rx="30" ry="50" fill="#fff" opacity="0.6"/>
  
  <!-- Stars -->
  <circle cx="100" cy="120" r="3" fill="#fff"/>
  <circle cx="420" cy="100" r="4" fill="#fff"/>
  <circle cx="80" cy="350" r="3" fill="#fff"/>
  <circle cx="440" cy="300" r="3" fill="#fff"/>
  <circle cx="150" cy="450" r="2" fill="#fff"/>
  <circle cx="380" cy="420" r="3" fill="#fff"/>
</svg>
